<?xml version="1.0" encoding="utf-8"?>
<!-- Uploaded to: SVG Repo, www.svgrepo.com, Generator: SVG Repo Mixer Tools -->
<svg width="800px" height="800px" viewBox="0 0 1024 1024" class="icon"  version="1.1" xmlns="http://www.w3.org/2000/svg"><path d="M993.763 493.538v35c0 13.331-6.04 26.664-18.135 37.137-140.15 121.422-280.35 242.795-420.49 364.219-11.814 10.237-25.813 15.501-42.454 15.501v-35c16.643 0 30.64-5.264 42.454-15.501 140.141-121.424 280.336-242.802 420.49-364.217 12.095-10.475 18.135-23.803 18.135-37.139z" fill="#3C94BE" /><path d="M30.239 528.367v-3.5-1.75-3.5-3.5-1.75-3.5-3.5-1.75-3.5-3.5-1.75-3.5c0 14.707 6.701 29.313 19.037 40.019 138.449 120.064 277.049 239.996 415.562 360.02 13.002 11.26 28.74 16.466 47.852 16.994v35c-19.108-0.528-34.85-5.734-47.852-16.994C326.325 808.382 187.725 688.45 49.276 568.386c-12.337-10.705-19.037-25.312-19.037-40.019z" fill="#3C94BE" /><path d="M510.786 76.601c16.263 0 32.546 5.362 44.946 16.097 139.95 121.188 279.901 242.376 419.819 363.586 24.241 20.995 24.295 53.413 0.079 74.397-140.15 121.42-280.35 242.796-420.489 364.217-11.815 10.239-25.813 15.502-42.452 15.502-19.109-0.528-34.852-5.734-47.854-16.994-138.511-120.024-277.111-239.956-415.56-360.02-19.581-16.988-24.96-43.81-11.895-65.251 3.919-6.438 8.669-11.829 14.465-16.849C189.954 331.734 328.024 212.152 466.107 92.567c12.296-10.64 28.478-15.966 44.679-15.966z" fill="#90D3EE" /><path d="M740.39 445.475v16.8c0 2.879-1.313 5.675-3.933 7.98-2.727 2.394-6.145 3.592-9.664 3.592-3.794 0-7.706-1.392-11-4.178-19.574-16.532-41.227-30.656-65.327-41.813-43.557-20.162-89.269-30.829-137.202-30.829-12.792 0-25.736 0.759-38.846 2.3-64.18 7.552-119.429 31.252-166.018 70.179-3.464 2.892-7.495 4.349-11.356 4.349-3.397 0-6.667-1.127-9.309-3.4-2.73-2.352-4.124-5.457-4.124-8.546v-16.8c0 3.09 1.393 6.195 4.124 8.546 2.643 2.273 5.912 3.4 9.309 3.4 3.862 0 7.892-1.458 11.356-4.349 46.588-38.926 101.839-62.626 166.018-70.178a332.199 332.199 0 0 1 38.846-2.3c47.934 0 93.646 10.667 137.202 30.829 24.101 11.156 45.753 25.281 65.327 41.813 3.295 2.786 7.206 4.178 11 4.178 3.52 0 6.938-1.196 9.664-3.593 2.619-2.305 3.933-5.101 3.933-7.98z" fill="#38559F" /><path d="M740.39 445.475v16.8c0 0.197-0.007 0.396-0.019 0.592v-16.8c0.012-0.196 0.019-0.396 0.019-0.592M740.371 446.068v16.8c-0.132 2.1-0.973 4.143-2.512 5.962v-16.8c1.539-1.82 2.38-3.862 2.512-5.962M737.859 452.03v16.8c-0.418 0.493-0.883 0.968-1.402 1.423a14.43 14.43 0 0 1-1.75 1.317v-16.8a14.525 14.525 0 0 0 1.75-1.316c0.52-0.455 0.984-0.932 1.402-1.424M734.707 454.77v16.8c-0.88 0.562-1.807 1.02-2.771 1.373v-16.8a14.237 14.237 0 0 0 2.771-1.373" fill="#38559F" /><path d="M731.938 456.143v16.8c-0.996 0.365-2.025 0.619-3.076 0.763v-16.8c1.05-0.144 2.08-0.398 3.076-0.763M728.86 456.907v16.8c-0.684 0.093-1.372 0.14-2.068 0.14-3.794 0-7.707-1.392-11-4.178-19.574-16.532-41.227-30.656-65.327-41.813-43.558-20.162-89.27-30.829-137.203-30.829-12.791 0-25.737 0.759-38.846 2.3-2.249 0.265-4.487 0.55-6.711 0.853v-16.8c2.226-0.304 4.462-0.588 6.711-0.853a332.224 332.224 0 0 1 38.846-2.3c47.934 0 93.646 10.667 137.203 30.829 24.101 11.156 45.753 25.281 65.327 41.813 3.295 2.786 7.206 4.178 11 4.178a15.471 15.471 0 0 0 2.068-0.14M467.705 383.38v16.8c-24.287 3.318-47.269 8.988-68.965 16.961v-16.8c21.697-7.973 44.679-13.644 68.965-16.961" fill="#38559F" /><path d="M398.741 400.341v16.8a301.078 301.078 0 0 0-58.45 28.968v-16.8a300.994 300.994 0 0 1 58.45-28.968M340.291 429.309v16.8a310.12 310.12 0 0 0-31.891 23.396 21.105 21.105 0 0 1-2.074 1.521v-16.8a20.932 20.932 0 0 0 2.074-1.52 309.982 309.982 0 0 1 31.891-23.397" fill="#38559F" /><path d="M306.326 454.225v16.8a18.61 18.61 0 0 1-3.603 1.792v-16.8a18.638 18.638 0 0 0 3.603-1.792M302.723 456.019v16.8a16.897 16.897 0 0 1-3.548 0.892v-16.8a17.084 17.084 0 0 0 3.548-0.892M299.175 456.909v16.8c-0.715 0.096-1.427 0.145-2.133 0.145-3.397 0-6.667-1.126-9.309-3.4-2.73-2.352-4.124-5.457-4.124-8.546v-16.8c0 3.09 1.393 6.195 4.124 8.546 2.643 2.273 5.912 3.4 9.309 3.4 0.708 0.001 1.42-0.049 2.133-0.145" fill="#38559F" /><path d="M512.195 356.077c74.401 0.785 140.84 20.488 198.829 60.914 8.357 5.824 16.119 12.309 23.949 18.683 6.703 5.463 7.166 12.78 1.483 17.783-2.727 2.394-6.145 3.591-9.664 3.591-3.794 0-7.706-1.392-11-4.177-19.574-16.533-41.227-30.658-65.327-41.814-43.557-20.162-89.269-30.829-137.202-30.829-12.792 0-25.736 0.759-38.846 2.3-64.179 7.552-119.428 31.252-166.018 70.178-3.464 2.892-7.495 4.349-11.356 4.349-3.397 0-6.667-1.126-9.308-3.4-5.342-4.599-5.564-12.072-0.263-16.699 19.243-16.788 40.541-31.287 64.109-43.273 34.646-17.624 71.88-29.043 111.605-33.922 16.21-1.983 32.67-2.498 49.009-3.684z" fill="#3C7FC2" /><path d="M692.482 486.382v16.8c0 5.21-2.807 8.626-7.687 10.957-1.545 0.735-3.407 1.082-5.349 1.082-3.737 0-7.773-1.277-10.406-3.501-12.782-10.771-26.681-20.304-42.014-28.204-35.184-18.129-73.01-28.156-113.459-28.157-3.727 0-7.469 0.086-11.241 0.257-55.217 2.514-103.329 20.445-143.861 53.223-3.691 2.991-7.025 6.247-12.643 6.247-0.35 0-0.708-0.014-1.076-0.04-5.475-0.391-10.927-2.757-12.328-6.939-0.607-1.81-1.028-3.642-1.028-5.435v-16.8c0 1.792 0.421 3.625 1.028 5.435 1.401 4.182 6.854 6.549 12.328 6.94 0.368 0.027 0.726 0.04 1.076 0.04 5.618 0 8.951-3.255 12.643-6.247 40.532-32.778 88.644-50.709 143.861-53.224a248.03 248.03 0 0 1 11.241-0.257c40.449 0 78.275 10.028 113.459 28.157 15.333 7.899 29.231 17.432 42.014 28.204 2.633 2.223 6.669 3.5 10.406 3.5 1.943 0 3.806-0.346 5.349-1.082 4.881-2.33 7.687-5.745 7.687-10.956z" fill="#38559F" /><path d="M692.482 486.382v16.8c0 0.285-0.01 0.563-0.026 0.837v-16.8c0.017-0.273 0.026-0.552 0.026-0.837M692.455 487.218v16.8c-0.151 2.527-1.008 4.606-2.468 6.333v-16.8c1.462-1.727 2.317-3.807 2.468-6.333" fill="#38559F" /><path d="M689.988 493.55v16.8c-0.827 0.976-1.847 1.838-3.049 2.603v-16.799c1.202-0.765 2.222-1.627 3.049-2.604M686.939 496.156v16.8c-0.661 0.424-1.376 0.816-2.144 1.183a9.43 9.43 0 0 1-0.817 0.344v-16.8c0.28-0.104 0.555-0.219 0.817-0.345a19.851 19.851 0 0 0 2.144-1.182" fill="#38559F" /><path d="M683.979 497.682v16.8c-0.776 0.285-1.61 0.485-2.482 0.604v-16.799a12.107 12.107 0 0 0 2.482-0.605M681.494 498.285v16.8c-0.667 0.09-1.354 0.136-2.049 0.136-3.738 0-7.772-1.277-10.406-3.501-12.781-10.771-26.681-20.304-42.014-28.204-35.183-18.129-73.009-28.156-113.459-28.157-3.727 0-7.469 0.086-11.241 0.257a278.008 278.008 0 0 0-24.995 2.254v-16.8a277.64 277.64 0 0 1 24.995-2.255 248.03 248.03 0 0 1 11.241-0.257c40.45 0 78.276 10.028 113.459 28.157 15.333 7.899 29.232 17.432 42.014 28.204 2.634 2.223 6.668 3.5 10.406 3.5 0.698 0.001 1.383-0.043 2.049-0.134" fill="#38559F" /><path d="M477.332 441.07v16.8c-18.121 2.479-35.404 6.746-51.83 12.782v-16.8c16.427-6.037 33.709-10.305 51.83-12.782" fill="#38559F" /><path d="M425.503 453.852v16.8a232.53 232.53 0 0 0-45.14 22.395v-16.8a232.444 232.444 0 0 1 45.14-22.395M380.363 476.246v16.8a242.671 242.671 0 0 0-21.897 15.792c-1.682 1.363-3.287 2.779-5.07 3.918v-16.8c1.783-1.137 3.388-2.555 5.07-3.918a242.671 242.671 0 0 1 21.897-15.792M353.396 495.957v16.8c-0.947 0.606-1.945 1.135-3.031 1.532v-16.8a15.472 15.472 0 0 0 3.031-1.532" fill="#38559F" /><path d="M350.366 497.489v16.8c-0.841 0.311-1.735 0.543-2.698 0.673v-16.8a12.777 12.777 0 0 0 2.698-0.673M347.668 498.162v16.8c-0.588 0.081-1.2 0.123-1.844 0.123-0.35 0-0.708-0.014-1.076-0.04-5.475-0.391-10.928-2.757-12.328-6.939-0.607-1.81-1.028-3.642-1.028-5.435v-16.8c0 1.792 0.421 3.625 1.028 5.435 1.4 4.182 6.854 6.549 12.328 6.94 0.368 0.027 0.726 0.04 1.076 0.04a13.633 13.633 0 0 0 1.844-0.124" fill="#38559F" /><path d="M511.335 415.042l0.92 0.001c67.416 0.366 125.647 20.339 174.191 61.097 3.268 2.741 5.929 5.44 6.029 9.883 0.132 5.413-2.69 8.931-7.681 11.313-1.545 0.737-3.407 1.082-5.349 1.082-3.739 0-7.773-1.277-10.406-3.5-12.782-10.772-26.681-20.304-42.014-28.204-35.184-18.129-73.01-28.156-113.459-28.157-3.727 0-7.469 0.086-11.241 0.257-55.217 2.515-103.329 20.445-143.861 53.224-3.691 2.991-7.025 6.247-12.643 6.247-0.35 0-0.708-0.012-1.076-0.04-5.475-0.391-10.928-2.758-12.328-6.94-1.512-4.513-1.876-9.158 2.58-13.016 12.811-11.103 26.671-21.089 41.942-29.557 40.973-22.711 85.842-33.69 134.396-33.69z" fill="#3C7FC2" /><path d="M645.544 527.342v16.8c-0.362 0.122-0.726 0.255-1.097 0.376v-16.8c0.371-0.122 0.735-0.254 1.097-0.376z" fill="#38559F" /><path d="M645.544 527.342v16.8c-0.362 0.122-0.726 0.255-1.097 0.376v-16.8c0.371-0.122 0.735-0.254 1.097-0.376" fill="#38559F" /><path d="M644.586 529.389v16.8c0 4.464-3.146 7.532-7.611 9.153-2.057 0.744-4.173 1.161-6.263 1.161-3.229 0-6.392-0.994-9.169-3.309-13.779-11.497-29.222-20.899-46.771-27.542-20.212-7.655-40.989-11.845-62.453-11.845-7.511 0-15.107 0.513-22.792 1.57-32.014 4.4-59.906 16.105-83.705 35.162-3.68 2.945-7.156 5.797-12.9 5.797-6.271-0.069-10.142-2.585-12.764-6.73-0.753-1.19-1.094-2.667-1.094-4.232v-16.801c0 1.565 0.342 3.045 1.094 4.233 2.622 4.146 6.491 6.661 12.764 6.73 5.745 0 9.22-2.852 12.9-5.797 23.799-19.058 51.691-30.764 83.705-35.164a167.382 167.382 0 0 1 22.792-1.569c21.464 0 42.242 4.189 62.453 11.844 17.55 6.644 32.992 16.045 46.771 27.542 2.775 2.314 5.94 3.309 9.169 3.309 2.089 0 4.206-0.417 6.263-1.161 4.464-1.62 7.611-4.687 7.611-9.151z" fill="#38559F" /><path d="M644.586 529.389v16.8c0 0.188-0.006 0.376-0.017 0.558v-16.8c0.011-0.184 0.017-0.371 0.017-0.558M644.569 529.946v16.8c-0.116 1.927-0.837 3.577-1.999 4.949v-16.8c1.164-1.373 1.883-3.022 1.999-4.949" fill="#38559F" /><path d="M642.572 534.896v16.8c-0.686 0.809-1.527 1.523-2.488 2.137v-16.8a11.07 11.07 0 0 0 2.488-2.137M640.082 537.034v16.8a15.743 15.743 0 0 1-3.025 1.479v-16.801a15.74 15.74 0 0 0 3.025-1.478M637.057 538.512v16.8c-0.027 0.01-0.054 0.021-0.082 0.029a19.623 19.623 0 0 1-4.013 1.005v-16.801a19.51 19.51 0 0 0 4.013-1.005c0.028-0.008 0.055-0.019 0.082-0.028M632.962 539.547v16.8a16.54 16.54 0 0 1-2.249 0.156c-3.228 0-6.391-0.994-9.168-3.309-13.78-11.497-29.223-20.899-46.771-27.542-20.213-7.655-40.99-11.845-62.453-11.845-7.476 0-15.031 0.508-22.679 1.554v-16.8a166.943 166.943 0 0 1 22.679-1.554c21.463 0 42.241 4.189 62.453 11.844 17.549 6.644 32.991 16.045 46.771 27.542 2.775 2.314 5.94 3.309 9.168 3.309a16.7 16.7 0 0 0 2.249-0.155M489.641 498.563v16.8l-0.114 0.017c-13.353 1.836-25.989 4.941-37.909 9.321v-16.8c11.92-4.38 24.556-7.487 37.909-9.323 0.037-0.006 0.076-0.01 0.114-0.015M451.618 507.899v16.8c-11.134 4.092-21.646 9.294-31.534 15.61v-16.8c9.889-6.316 20.4-11.518 31.534-15.61M420.084 523.511v16.8a164.95 164.95 0 0 0-14.263 10.231c-1.392 1.112-2.75 2.212-4.216 3.149v-16.8c1.464-0.938 2.825-2.037 4.216-3.15a164.51 164.51 0 0 1 14.263-10.23M401.605 536.891v16.8c-1.07 0.685-2.197 1.282-3.432 1.736v-16.8c1.235-0.454 2.362-1.052 3.432-1.736M398.173 538.627v16.8c-0.956 0.352-1.974 0.615-3.083 0.767v-16.8a14.583 14.583 0 0 0 3.083-0.767M395.09 539.394v16.8c-0.686 0.092-1.408 0.144-2.168 0.144-6.271-0.069-10.142-2.585-12.764-6.73-0.753-1.19-1.094-2.667-1.094-4.232v-16.801c0 1.565 0.342 3.045 1.094 4.233 2.622 4.146 6.491 6.661 12.764 6.73 0.76-0.001 1.482-0.052 2.168-0.144" fill="#38559F" /><path d="M513.694 473.237c34.461-0.001 67.335 7.921 97.881 25.349 10.645 6.066 20.05 13.827 29.625 21.188 2.258 1.736 2.944 5.001 4.344 7.568-0.362 0.122-0.726 0.254-1.097 0.376 0.878 5.379-2.47 9.009-7.47 10.824-2.058 0.743-4.174 1.16-6.265 1.16-3.228 0-6.391-0.993-9.168-3.309-13.78-11.496-29.223-20.898-46.771-27.542-20.213-7.655-40.99-11.844-62.453-11.844-7.512 0-15.108 0.514-22.793 1.569-32.014 4.401-59.906 16.105-83.705 35.164-3.68 2.945-7.156 5.797-12.901 5.797-6.271-0.069-10.142-2.585-12.764-6.73-2.389-3.771-0.635-10.459 3.024-13.628 25.703-22.269 56.246-37.178 92.02-42.826 13.018-2.051 25.865-3.116 38.493-3.116z" fill="#3C7FC2" /><path d="M513.271 579.865c-0.398 0-0.576 0.001-0.755 0.005v-1.963-2.079-2.159-2.197-2.198-2.16-2.078-1.962c0.142-0.003 0.285-0.004 0.541-0.006v0h0.214c15.446 0.102 29.624 13.168 29.819 26.728v16.8c-0.195-13.562-14.373-26.628-29.819-26.731z" fill="#38559F" /><path d="M543.091 590.202v16.8c0.089-13.703-14.217-27.034-29.82-27.137-0.398 0-0.576 0.001-0.755 0.005l-0.572 0.019a45.287 45.287 0 0 0-4.151 0.364v-16.8a44.935 44.935 0 0 1 4.151-0.365l0.572-0.018c0.179-0.004 0.356-0.005 0.755-0.005 15.603 0.104 29.909 13.434 29.82 27.137" fill="#38559F" /><path d="M543.091 607.002c0.002-0.138 0-0.273-0.001-0.41a47040 47040 0 0 0 0-16.8c0.001 0.137 0.003 0.272 0.001 0.41v16.8z" fill="#38559F" /><path d="M543.091 590.202v16.8c0.089-13.703-14.217-27.034-29.82-27.137-0.398 0-0.576 0.001-0.755 0.005l-0.572 0.019a45.287 45.287 0 0 0-4.151 0.364v-16.8a44.935 44.935 0 0 1 4.151-0.365l0.572-0.018c0.179-0.004 0.356-0.005 0.755-0.005 15.603 0.104 29.909 13.434 29.82 27.137" fill="#38559F" /><path d="M480.998 606.706c-0.011 0.22-0.016 0.439-0.019 0.661v-16.8c0.003-0.22 0.008-0.438 0.019-0.662 0.736-15.957 13.731-26.104 30.946-26.817l0.572-0.018V579.867l-0.572 0.018c-17.215 0.719-30.21 10.863-30.946 26.821z" fill="#38559F" /><path d="M543.091 590.202v16.8c0.089-13.703-14.217-27.034-29.82-27.137-0.398 0-0.576 0.001-0.755 0.005l-0.572 0.019a45.287 45.287 0 0 0-4.151 0.364v-16.8a44.935 44.935 0 0 1 4.151-0.365l0.572-0.018c0.179-0.004 0.356-0.005 0.755-0.005 15.603 0.104 29.909 13.434 29.82 27.137" fill="#38559F" /><path d="M507.793 563.453v16.8c-2.889 0.395-5.626 1.068-8.167 2.003v-16.8c2.544-0.935 5.28-1.609 8.167-2.003M499.625 565.453v16.801a32.449 32.449 0 0 0-6.304 3.104v-16.8a32.452 32.452 0 0 1 6.304-3.105M493.32 568.559v16.8c-2.372 1.517-4.465 3.323-6.222 5.397v-16.8c1.758-2.074 3.85-3.882 6.222-5.397M487.098 573.957v16.801c-3.53 4.17-5.709 9.414-6.077 15.525v-16.8c0.368-6.113 2.547-11.357 6.077-15.526M481.021 589.483v16.8a57.2 57.2 0 0 0-0.022 0.424c-0.012 0.222-0.018 0.44-0.021 0.662v-16.801c0.003-0.22 0.008-0.439 0.021-0.661l0.022-0.424" fill="#38559F" /><path d="M480.98 607.367l-0.001 0.194v-16.8l0.001-0.194v16.8z" fill="#38559F" /><path d="M480.98 590.567v16.8l-0.001 0.194v-16.8l0.001-0.194" fill="#38559F" /><path d="M480.979 607.561V590.76v16.801z" fill="#38559F" /><path d="M480.979 590.896v16.662-16.8 0.138" fill="#38559F" /><path d="M512.035 617.063v16.8c-0.574 0-1.083-0.012-1.59-0.037-15.326-0.756-29.385-12.822-29.467-26.128v-16.8c0.082 13.306 14.141 25.372 29.467 26.128 0.508 0.025 1.016 0.037 1.59 0.037z" fill="#38559F" /><path d="M512.035 617.063v16.8c-0.574 0-1.083-0.012-1.59-0.037-15.326-0.756-29.385-12.822-29.467-26.128v-16.8c0.082 13.306 14.141 25.372 29.467 26.128 0.508 0.025 1.016 0.037 1.59 0.037" fill="#38559F" /><path d="M543.091 590.202v16.8c-0.08 14.012-14.907 26.826-31.056 26.861v-16.8c16.149-0.035 30.976-12.85 31.056-26.861z" fill="#38559F" /><path d="M543.091 590.202v16.8a20.54 20.54 0 0 1-0.039 1.165v-16.8c0.024-0.387 0.037-0.775 0.039-1.165M543.052 591.367v16.8c-0.323 5.068-2.547 9.937-6.029 14.047v-16.8c3.48-4.11 5.705-8.978 6.029-14.047M537.022 605.414v16.8c-2.047 2.416-4.528 4.569-7.311 6.348v-16.8c2.783-1.78 5.265-3.933 7.311-6.348" fill="#38559F" /><path d="M529.712 611.763v16.8a34.476 34.476 0 0 1-6.621 3.287v-16.8a34.448 34.448 0 0 0 6.621-3.287M523.091 615.048v16.801a33.005 33.005 0 0 1-6.914 1.727v-16.8a32.945 32.945 0 0 0 6.914-1.728M516.176 616.776v16.8a30.847 30.847 0 0 1-4.142 0.287v-16.8a30.649 30.649 0 0 0 4.142-0.287" fill="#38559F" /><path d="M513.05 563.065c15.824 0.103 30.13 13.434 30.041 27.137-0.08 14.011-14.907 26.826-31.056 26.861a32.97 32.97 0 0 1-1.59-0.037c-15.326-0.756-29.385-12.822-29.467-26.128v-0.33c0.003-0.22 0.008-0.439 0.019-0.661 0.736-15.958 13.731-26.104 30.946-26.817 0.192-0.007 0.381-0.013 0.572-0.018 0.178-0.006 0.357-0.007 0.535-0.007z" fill="#C4E6F4" /><path d="M570.902 589.81v16.801c0.154 26.484-25.829 50.905-56.012 50.905-0.907 0-1.813-0.023-2.726-0.065v-16.8c0.912 0.042 1.817 0.065 2.726 0.065 30.183 0 56.169-24.421 56.012-50.906z" fill="#38559F" /><path d="M570.902 589.81v16.801c0.004 0.928-0.023 1.856-0.08 2.779v-16.8a40.86 40.86 0 0 0 0.08-2.78" fill="#38559F" /><path d="M570.823 592.59v16.8c-0.623 9.967-4.891 19.523-11.604 27.458v-16.8c6.714-7.934 10.979-17.491 11.604-27.458" fill="#38559F" /><path d="M559.22 620.05v16.8c-3.686 4.355-8.11 8.222-13.075 11.399v-16.8c4.964-3.178 9.389-7.044 13.075-11.399M546.145 631.447v16.801a59.322 59.322 0 0 1-11.521 5.724v-16.8a59.353 59.353 0 0 0 11.521-5.725M534.623 637.172v16.8a57.702 57.702 0 0 1-12.15 3.03v-16.8a57.702 57.702 0 0 0 12.15-3.03M522.473 640.202v16.8a56.16 56.16 0 0 1-10.308 0.449v-16.8a56.171 56.171 0 0 0 10.308-0.449" fill="#38559F" /><path d="M512.167 640.65v16.8c-0.971 0.048-1.936 0.072-2.898 0.072-30.83 0-56.006-24.76-56.211-50.197v-16.8c0.204 25.438 25.381 50.197 56.211 50.197 0.96 0.001 1.926-0.023 2.898-0.072z" fill="#38559F" /><path d="M512.167 640.65v16.8c-0.971 0.048-1.936 0.072-2.898 0.072-30.83 0-56.006-24.76-56.211-50.197v-16.8c0.204 25.438 25.381 50.197 56.211 50.197 0.96 0.001 1.926-0.023 2.898-0.072" fill="#38559F" /><path d="M511.572 539.107c32.26-0.001 59.169 23.985 59.33 50.702 0.154 26.485-25.829 50.906-56.012 50.906-0.907 0-1.813-0.023-2.726-0.065-0.97 0.048-1.936 0.072-2.898 0.072-30.83 0-56.005-24.76-56.212-50.197-0.229-27.533 27.289-51.26 58.518-51.418z m0.398 77.956c16.214-0.034 31.042-12.851 31.121-26.861 0.089-13.703-14.217-27.034-29.82-27.137-0.398 0-0.576 0.001-0.755 0.005l-0.572 0.018c-17.215 0.716-30.209 10.86-30.945 26.817a16.257 16.257 0 0 0-0.021 0.991c0.082 13.306 14.141 25.373 29.467 26.129a29.82 29.82 0 0 0 1.525 0.038" fill="#3C7FC2" /></svg>